<?xml version="1.0" encoding="utf-8"?>
<!-- Generator: Adobe Illustrator 24.2.3, SVG Export Plug-In . SVG Version: 6.00 Build 0)  -->
<svg version="1.1" id="Capa_1" xmlns="http://www.w3.org/2000/svg" xmlns:xlink="http://www.w3.org/1999/xlink" x="0px" y="0px"
	 viewBox="0 0 1080 1080" style="enable-background:new 0 0 1080 1080;" xml:space="preserve">
<style type="text/css">
	.st0{fill:#0057FF;}
</style>
<g transform="translate(0.000000,1080.000000) scale(0.100000,-0.100000)">
	<g>
		<path class="st0" d="M5160,3895H3650c-2.8,0-5,2.2-5,5v128c0,2.4,1.7,4.5,4.1,4.9l37,7c81.7,14.6,163.4,82.4,190.2,157.8
			c20.4,56.2,20.4,2348.5,0,2404.6c-26.8,75.4-108.5,143.2-190.2,157.8l-37.1,7c-2.4,0.4-4.1,2.5-4.1,4.9v128c0,2.8,2.2,5,5,5h1510
			c2.8,0,5-2.2,5-5v-127c0-2.4-1.8-4.5-4.2-4.9l-41-7c-53.2-8.9-105.4-36.8-143.2-76.5c-4-4.2-7.7-7.8-11.2-11.2
			c-50.6-49.1-50.6-49.1-50.4-1065.5l0-207.9l0-207.9c-0.2-1016.4-0.2-1016.4,50.4-1065.5c3.5-3.4,7.2-7,11.2-11.2
			c37.8-39.8,90-67.7,143.2-76.5l41-7c2.4-0.4,4.2-2.5,4.2-4.9v-127C5165,3897.2,5162.8,3895,5160,3895z M3655,3905h1500v117.8
			l-36.8,6.3c-55.3,9.2-109.5,38.2-148.8,79.5c-3.9,4-7.5,7.6-10.9,10.9c-53.7,52-53.7,52-53.5,1072.6l0,207.9l0,207.9
			c-0.2,1020.6-0.2,1020.6,53.5,1072.6c3.4,3.3,7.1,6.8,10.9,10.9c39.3,41.3,93.5,70.3,148.8,79.5l36.8,6.3V6895H3655v-118.9
			l32.9-6.2c84.9-15.2,169.9-85.8,197.8-164.2c20.4-56.3,20.4-2355,0-2411.4c-27.9-78.4-112.9-149.1-197.8-164.2l-32.9-6.2V3905z"/>
	</g>
	<g>
		<path class="st0" d="M7150,3895H5640c-2.8,0-5,2.2-5,5v127c0,2.4,1.8,4.5,4.2,4.9l41,7c53.2,8.9,105.4,36.7,143.2,76.5
			c4,4.2,7.7,7.8,11.2,11.2c50.6,49.1,50.6,49.1,50.4,1065.2l0,208.1l0,208.1c0.2,1016.2,0.2,1016.2-50.4,1065.2
			c-3.5,3.4-7.2,7-11.2,11.2c-37.8,39.8-90,67.7-143.2,76.5l-41,7c-2.4,0.4-4.2,2.5-4.2,4.9v127c0,2.8,2.2,5,5,5h1510
			c2.8,0,5-2.2,5-5v-128c0-2.4-1.7-4.5-4.1-4.9l-37-7c-81.7-14.6-163.4-82.4-190.2-157.8c-12-32-13.7-285-13.7-1202.3
			s1.7-1170.3,13.7-1202.2c26.8-75.4,108.5-143.3,190.2-157.8l37.1-7c2.4-0.4,4.1-2.5,4.1-4.9v-128
			C7155,3897.2,7152.8,3895,7150,3895z M5645,3905h1500v118.9l-32.9,6.2c-84.9,15.2-169.9,85.8-197.8,164.2
			c-12,32-14.3,223.6-14.3,1205.7s2.3,1173.6,14.3,1205.8c27.8,78.4,112.9,149,197.8,164.2l32.9,6.2V6895H5645v-117.8l36.8-6.3
			c55.3-9.2,109.5-38.2,148.8-79.5c3.9-4,7.5-7.6,10.9-10.9c53.7-52,53.7-52,53.5-1072.4l0-208.1l0-208.1
			c0.2-1020.4,0.2-1020.4-53.5-1072.4c-3.4-3.3-7.1-6.8-10.9-10.9c-39.3-41.3-93.5-70.3-148.8-79.5l-36.8-6.3V3905z"/>
	</g>
</g>
</svg>
