<?xml version="1.0" encoding="utf-8"?>
<!-- Generator: Adobe Illustrator 24.2.3, SVG Export Plug-In . SVG Version: 6.00 Build 0)  -->
<svg version="1.1" id="Capa_1" xmlns="http://www.w3.org/2000/svg" xmlns:xlink="http://www.w3.org/1999/xlink" x="0px" y="0px"
	 viewBox="0 0 1080 1080" style="enable-background:new 0 0 1080 1080;" xml:space="preserve">
<style type="text/css">
	.st0{fill:none;stroke:#0057FF;stroke-width:1.5;stroke-miterlimit:10;}
</style>
<g transform="translate(0.000000,1080.000000) scale(0.100000,-0.100000)">
	<path class="st0" d="M3650,6836v-64l37-7c84-15,167-85,194-161c21-58,21-2350,0-2408c-27-76-110-146-194-161l-37-7v-64v-64h755h755
		v64v63l-41,7c-54,9-107,37-146,78c-67,70-63-15-63,1288s-4,1218,63,1288c39,41,92,69,146,78l41,7v63v64h-755h-755V6836z"/>
	<path class="st0" d="M5640,6836v-63l41-7c54-9,107-37,146-78c67-70,63,15,63-1288s4-1218-63-1288c-39-41-92-69-146-78l-41-7v-63
		v-64h755h755v64v64l-37,7c-84,15-167,85-194,161c-12,32-14,243-14,1204s2,1172,14,1204c27,76,110,146,194,161l37,7v64v64h-755h-755
		V6836z"/>
</g>
</svg>
