<?xml version="1.0" encoding="utf-8"?>
<!-- Generator: Adobe Illustrator 25.0.0, SVG Export Plug-In . SVG Version: 6.00 Build 0)  -->
<svg version="1.1" id="Capa_1" xmlns="http://www.w3.org/2000/svg" xmlns:xlink="http://www.w3.org/1999/xlink" x="0px" y="0px"
	 viewBox="0 0 466 399.3" style="enable-background:new 0 0 466 399.3;" xml:space="preserve">
<style type="text/css">
	.st0{fill:#1A2A48;}
	.st1{fill:#FFFFFF;}
</style>
<path class="st0" d="M573.3,739.2h-680c-110.5,0-200-89.5-200-200v-680c0-110.5,89.5-200,200-200h680c110.5,0,200,89.5,200,200v680
	C773.3,649.7,683.8,739.2,573.3,739.2z"/>
<g>
	<path class="st1" d="M166.4,0H33.3H0v16.6c9.2,0,17.5,3.7,23.5,9.8c6,6,9.7,14.2,9.7,23.3v83.4v133.1v83.4c0,9.1-3.8,17.4-9.7,23.4
		c-6,6-14.3,9.8-23.5,9.8v16.6h33.3l0,0h66.6h66.6l0,0h33.3v-16.6c-9.2,0-17.5-3.7-23.5-9.8c-6-6-9.7-14.3-9.7-23.4v-83.3V133.2
		V49.8c0-9.1,3.7-17.4,9.7-23.4s14.3-9.8,23.5-9.8V0L166.4,0L166.4,0z"/>
	<path class="st1" d="M432.7,133.2V49.8c0-9.1,3.7-17.4,9.7-23.4s14.3-9.8,23.5-9.8V0h-33.3h-133h-33.3v16.6
		c9.2,0,17.5,3.7,23.5,9.8c6,6,9.7,14.3,9.7,23.4v83.3v133.1v83.3c0,9.1-3.7,17.4-9.7,23.4s-14.3,9.8-23.5,9.8v16.6h33.3l0,0h66.6
		h66.6l0,0H466v-16.6c-9.2,0-17.5-3.7-23.5-9.8c-6-6-9.7-14.3-9.7-23.4v-83.3L432.7,133.2L432.7,133.2z"/>
	<rect x="118.8" y="177.6" class="st1" width="197.5" height="44.3"/>
</g>
</svg>
