<?xml version="1.0" encoding="utf-8"?>
<!-- Generator: Adobe Illustrator 24.2.3, SVG Export Plug-In . SVG Version: 6.00 Build 0)  -->
<svg version="1.1" id="Capa_1" xmlns="http://www.w3.org/2000/svg" xmlns:xlink="http://www.w3.org/1999/xlink" x="0px" y="0px"
	 viewBox="0 0 466 399.4" style="enable-background:new 0 0 466 399.4;" xml:space="preserve">
<style type="text/css">
	.st0{fill:#0057FF;}
</style>
<g transform="translate(0.000000,1080.000000) scale(0.100000,-0.100000)">
	<path class="st0" d="M0,10714.8v-85.2l49.3-9.3c111.8-20,222.3-113.2,258.3-214.4c28-77.2,28-3128.9,0-3206.1
		c-35.9-101.2-146.5-194.4-258.3-214.4L0,6976.1v-85.2v-85.2h1005.2h1005.2v85.2v83.9l-54.6,9.3c-71.9,12-142.5,49.3-194.4,103.9
		c-89.2,93.2-83.9-20-83.9,1714.9s-5.3,1621.7,83.9,1714.9c51.9,54.6,122.5,91.9,194.4,103.9l54.6,9.3v83.9v85.2H1005.2H0V10714.8z"
		/>
	<path class="st0" d="M2649.5,10714.8v-83.9l54.6-9.3c71.9-12,142.5-49.3,194.4-103.9c89.2-93.2,83.9,20,83.9-1714.9
		s5.3-1621.7-83.9-1714.9c-51.9-54.6-122.5-91.9-194.4-103.9l-54.6-9.3v-83.9v-85.2h1005.2H4660v85.2v85.2l-49.3,9.3
		c-111.8,20-222.3,113.2-258.3,214.4c-16,42.6-18.6,323.5-18.6,1603s2.7,1560.4,18.6,1603c35.9,101.2,146.5,194.4,258.3,214.4
		l49.3,9.3v85.2v85.2H3654.8H2649.5V10714.8z"/>
</g>
</svg>
