<?xml version="1.0" standalone="no"?>
<!DOCTYPE svg PUBLIC "-//W3C//DTD SVG 20010904//EN"
 "http://www.w3.org/TR/2001/REC-SVG-20010904/DTD/svg10.dtd">
<svg version="1.0" xmlns="http://www.w3.org/2000/svg"
 width="1080.000000pt" height="1080.000000pt" viewBox="0 0 1080.000000 1080.000000"
 preserveAspectRatio="xMidYMid meet">
<metadata>
Created by potrace 1.16, written by Peter Selinger 2001-2019
</metadata>
<g transform="translate(0.000000,1080.000000) scale(0.100000,-0.100000)"
fill="#000000" stroke="none">
<path d="M3650 6836 l0 -64 37 -7 c84 -15 167 -85 194 -161 21 -58 21 -2350 0
-2408 -27 -76 -110 -146 -194 -161 l-37 -7 0 -64 0 -64 755 0 755 0 0 64 0 63
-41 7 c-54 9 -107 37 -146 78 -67 70 -63 -15 -63 1288 0 1303 -4 1218 63 1288
39 41 92 69 146 78 l41 7 0 63 0 64 -755 0 -755 0 0 -64z"/>
<path d="M5640 6836 l0 -63 41 -7 c54 -9 107 -37 146 -78 67 -70 63 15 63
-1288 0 -1303 4 -1218 -63 -1288 -39 -41 -92 -69 -146 -78 l-41 -7 0 -63 0
-64 755 0 755 0 0 64 0 64 -37 7 c-84 15 -167 85 -194 161 -12 32 -14 243 -14
1204 0 961 2 1172 14 1204 27 76 110 146 194 161 l37 7 0 64 0 64 -755 0 -755
0 0 -64z"/>
</g>
</svg>
