<?xml version="1.0" encoding="utf-8"?>
<!-- Generator: Adobe Illustrator 25.0.0, SVG Export Plug-In . SVG Version: 6.00 Build 0)  -->
<svg version="1.1" id="Capa_1" xmlns="http://www.w3.org/2000/svg" xmlns:xlink="http://www.w3.org/1999/xlink" x="0px" y="0px"
	 viewBox="0 0 1080 1080" style="enable-background:new 0 0 1080 1080;" xml:space="preserve">
<style type="text/css">
	.st0{fill:#1A2A48;}
	.st1{fill:#FFFFFF;}
</style>
<path class="st0" d="M880,1080H200C89.5,1080,0,990.5,0,880V200C0,89.5,89.5,0,200,0h680c110.5,0,200,89.5,200,200v680
	C1080,990.5,990.5,1080,880,1080z"/>
<g>
	<path class="st1" d="M473.1,340.8H340h-33.3v16.6c9.2,0,17.5,3.7,23.5,9.8c6,6,9.7,14.2,9.7,23.3v83.4V607v83.4
		c0,9.1-3.8,17.4-9.7,23.4c-6,6-14.3,9.8-23.5,9.8v16.6H340l0,0h66.6h66.6l0,0h33.3v-16.6c-9.2,0-17.5-3.7-23.5-9.8
		c-6-6-9.7-14.3-9.7-23.4v-83.3V474v-83.4c0-9.1,3.7-17.4,9.7-23.4s14.3-9.8,23.5-9.8v-16.6H473.1z"/>
	<path class="st1" d="M739.4,474v-83.4c0-9.1,3.7-17.4,9.7-23.4s14.3-9.8,23.5-9.8v-16.6h-33.3h-133H573v16.6
		c9.2,0,17.5,3.7,23.5,9.8c6,6,9.7,14.3,9.7,23.4v83.3V607v83.3c0,9.1-3.7,17.4-9.7,23.4s-14.3,9.8-23.5,9.8v16.6h33.3l0,0h66.6
		h66.6l0,0h33.2v-16.6c-9.2,0-17.5-3.7-23.5-9.8c-6-6-9.7-14.3-9.7-23.4V607L739.4,474L739.4,474z"/>
	<rect x="425.5" y="518.4" class="st1" width="197.5" height="44.3"/>
</g>
</svg>
